<svg viewBox="0 0 802.05 177.42" xmlns="http://www.w3.org/2000/svg"><g fill="#fff"><path d="m9.36 1 17.88 28.76h.12v-28.76h8.82v42.86h-9.42l-17.82-28.68h-.12v28.68h-8.82v-42.86z"/><path d="m82.5 1v7.94h-22.62v9.18h20.76v7.32h-20.76v10.5h23.12v7.92h-32.54v-42.86z"/><path d="m126.78 43.86-7.26-29.16h-.12l-7.14 29.16h-9.54l-11.34-42.86h9.42l6.78 29.16h.12l7.44-29.16h8.86l7.32 29.52h.12l7-29.52h9.24l-11.54 42.86z"/><path d="m176 1h10.6l10 16.92 9.98-16.92h10.5l-15.9 26.4v16.46h-9.42v-16.68z"/><path d="m226.26 13.71a21.4 21.4 0 0 1 4.14-7.17 18.93 18.93 0 0 1 6.6-4.8 23.45 23.45 0 0 1 17.73 0 19 19 0 0 1 6.6 4.8 21.4 21.4 0 0 1 4.14 7.17 26.77 26.77 0 0 1 1.44 8.91 25.87 25.87 0 0 1 -1.44 8.73 20.85 20.85 0 0 1 -4.14 7 19 19 0 0 1 -6.6 4.71 23.83 23.83 0 0 1 -17.73 0 19 19 0 0 1 -6.63-4.71 20.85 20.85 0 0 1 -4.14-7 25.87 25.87 0 0 1 -1.44-8.73 26.77 26.77 0 0 1 1.47-8.91zm8.61 14.16a14.19 14.19 0 0 0 2 4.59 10.3 10.3 0 0 0 3.6 3.27 12.47 12.47 0 0 0 10.8 0 10.3 10.3 0 0 0 3.6-3.27 14.19 14.19 0 0 0 2-4.59 21.81 21.81 0 0 0 .63-5.25 23.44 23.44 0 0 0 -.63-5.46 14.46 14.46 0 0 0 -2-4.71 10.2 10.2 0 0 0 -3.6-3.3 12.47 12.47 0 0 0 -10.8 0 10.2 10.2 0 0 0 -3.6 3.3 14.46 14.46 0 0 0 -2 4.71 23.44 23.44 0 0 0 -.63 5.46 21.81 21.81 0 0 0 .63 5.25z"/><path d="m302.46 1a13.79 13.79 0 0 1 5.19.93 12 12 0 0 1 4 2.55 11.07 11.07 0 0 1 2.52 3.75 12 12 0 0 1 .87 4.59 12.88 12.88 0 0 1 -1.59 6.54 10 10 0 0 1 -5.19 4.2v.12a7.27 7.27 0 0 1 2.88 1.47 8.15 8.15 0 0 1 1.86 2.36 10.89 10.89 0 0 1 1.05 3 25.75 25.75 0 0 1 .45 3.24q.06 1 .12 2.4t.21 2.82a18.92 18.92 0 0 0 .48 2.73 6.3 6.3 0 0 0 1 2.19h-9.42a16.61 16.61 0 0 1 -1-4.86q-.18-2.82-.54-5.4a8.51 8.51 0 0 0 -2-4.92q-1.56-1.56-5.1-1.56h-9.42v16.71h-9.42v-42.86zm-3.36 19.4a7.13 7.13 0 0 0 4.9-1.4q1.62-1.44 1.62-4.68t-1.62-4.57a7.23 7.23 0 0 0 -4.86-1.41h-10.36v12.06z"/><path d="m338.1 1v17.78l16.74-17.78h11.76l-16.74 16.94 18.36 25.92h-11.82l-12.9-19.26-5.4 5.46v13.8h-9.42v-42.86z"/><path d="m409.46 0-16.74 44.82h-6.78l16.68-44.82z"/><path d="m21 58.38a17.84 17.84 0 0 1 6.84 1.17 12.8 12.8 0 0 1 4.59 3.09 11.87 11.87 0 0 1 2.57 4.36 16.37 16.37 0 0 1 0 10.17 11.83 11.83 0 0 1 -2.58 4.41 12.8 12.8 0 0 1 -4.59 3.09 17.84 17.84 0 0 1 -6.83 1.19h-9.9v15.36h-9.42v-42.84zm-2.58 20.16a19.73 19.73 0 0 0 3.12-.24 7.26 7.26 0 0 0 2.64-.93 5.07 5.07 0 0 0 1.83-2 8.24 8.24 0 0 0 0-6.6 5.07 5.07 0 0 0 -1.83-1.95 7.26 7.26 0 0 0 -2.64-.93 19.73 19.73 0 0 0 -3.12-.24h-7.32v12.89z"/><path d="m47.28 71.07a21.4 21.4 0 0 1 4.14-7.17 18.93 18.93 0 0 1 6.63-4.8 21.64 21.64 0 0 1 8.85-1.74 21.58 21.58 0 0 1 8.88 1.74 19 19 0 0 1 6.6 4.8 21.4 21.4 0 0 1 4.14 7.17 26.77 26.77 0 0 1 1.48 8.93 25.87 25.87 0 0 1 -1.44 8.73 20.85 20.85 0 0 1 -4.14 7.05 19 19 0 0 1 -6.6 4.71 21.91 21.91 0 0 1 -8.88 1.71 22 22 0 0 1 -8.85-1.71 19 19 0 0 1 -6.63-4.71 20.85 20.85 0 0 1 -4.14-7.05 25.87 25.87 0 0 1 -1.48-8.73 26.77 26.77 0 0 1 1.44-8.93zm8.61 14.16a14.19 14.19 0 0 0 2 4.59 10.3 10.3 0 0 0 3.6 3.27 11 11 0 0 0 5.4 1.23 11 11 0 0 0 5.4-1.23 10.3 10.3 0 0 0 3.6-3.27 14.19 14.19 0 0 0 2-4.59 21.81 21.81 0 0 0 .65-5.23 23.44 23.44 0 0 0 -.63-5.46 14.46 14.46 0 0 0 -2-4.71 10.2 10.2 0 0 0 -3.6-3.3 11 11 0 0 0 -5.4-1.23 11 11 0 0 0 -5.4 1.23 10.2 10.2 0 0 0 -3.6 3.3 14.46 14.46 0 0 0 -2 4.71 23.44 23.44 0 0 0 -.65 5.46 21.81 21.81 0 0 0 .63 5.23z"/><path d="m118.86 58.38a22.06 22.06 0 0 1 7.71 1.32 16.74 16.74 0 0 1 6.18 4 18.28 18.28 0 0 1 4.08 6.6 26.7 26.7 0 0 1 1.47 9.3 29.68 29.68 0 0 1 -1.2 8.64 19 19 0 0 1 -3.63 6.76 17 17 0 0 1 -6.06 4.53 20.51 20.51 0 0 1 -8.55 1.65h-18.48v-42.8zm-.66 34.92a12.1 12.1 0 0 0 4-.66 8.72 8.72 0 0 0 3.42-2.19 11 11 0 0 0 2.4-4 17.55 17.55 0 0 0 .9-6 25 25 0 0 0 -.63-5.85 11.67 11.67 0 0 0 -2.07-4.47 9.18 9.18 0 0 0 -3.81-2.85 15.21 15.21 0 0 0 -5.85-1h-6.76v27z"/><path d="m178.32 69.81a9.47 9.47 0 0 0 -2.1-2.37 9.68 9.68 0 0 0 -2.85-1.59 9.79 9.79 0 0 0 -3.33-.57 11 11 0 0 0 -5.4 1.23 10.2 10.2 0 0 0 -3.6 3.3 14.46 14.46 0 0 0 -2 4.71 23.44 23.44 0 0 0 -.64 5.48 21.81 21.81 0 0 0 .63 5.25 14.19 14.19 0 0 0 2 4.59 10.3 10.3 0 0 0 3.6 3.27 11 11 0 0 0 5.4 1.23 8.72 8.72 0 0 0 6.75-2.64 12.21 12.21 0 0 0 3-7h9.12a21.78 21.78 0 0 1 -1.9 7.3 17.39 17.39 0 0 1 -4 5.52 16.83 16.83 0 0 1 -5.7 3.48 21.1 21.1 0 0 1 -7.26 1.2 22 22 0 0 1 -8.85-1.71 19 19 0 0 1 -6.63-4.71 20.85 20.85 0 0 1 -4.14-7.05 25.87 25.87 0 0 1 -1.42-8.73 26.77 26.77 0 0 1 1.44-8.91 21.4 21.4 0 0 1 4.14-7.17 18.93 18.93 0 0 1 6.63-4.8 23 23 0 0 1 15.54-.72 18.11 18.11 0 0 1 5.64 3 16.05 16.05 0 0 1 4.11 4.83 17.27 17.27 0 0 1 2 6.6h-9.1a7.69 7.69 0 0 0 -1.08-3.02z"/><path d="m222.66 58.38 16 42.84h-9.76l-3.24-9.54h-16l-3.36 9.54h-9.5l16.2-42.84zm.54 26.28-5.4-15.72h-.12l-5.58 15.72z"/><path d="m255.6 90.66a6.82 6.82 0 0 0 2.07 2.43 9 9 0 0 0 3 1.38 14.32 14.32 0 0 0 3.6.45 18.77 18.77 0 0 0 2.7-.21 9.39 9.39 0 0 0 2.7-.81 5.89 5.89 0 0 0 2.1-1.65 4.14 4.14 0 0 0 .84-2.67 3.76 3.76 0 0 0 -1.11-2.82 8.8 8.8 0 0 0 -2.91-1.8 29 29 0 0 0 -4.08-1.26q-2.28-.54-4.62-1.2a41 41 0 0 1 -4.65-1.5 16.08 16.08 0 0 1 -4.08-2.25 10.6 10.6 0 0 1 -2.91-3.45 10.48 10.48 0 0 1 -1.11-5 11.22 11.22 0 0 1 1.41-5.73 12.78 12.78 0 0 1 3.69-4.05 16.08 16.08 0 0 1 5.16-2.4 22 22 0 0 1 5.76-.78 27.25 27.25 0 0 1 6.45.75 16.09 16.09 0 0 1 5.49 2.43 12.29 12.29 0 0 1 3.81 4.29 13.16 13.16 0 0 1 1.41 6.33h-9.12a7.57 7.57 0 0 0 -.81-3.18 5.3 5.3 0 0 0 -1.83-2 7.74 7.74 0 0 0 -2.56-.96 16.07 16.07 0 0 0 -3.21-.3 11 11 0 0 0 -2.28.24 6.1 6.1 0 0 0 -2.07.84 5.21 5.21 0 0 0 -1.53 1.5 4 4 0 0 0 -.6 2.28 3.85 3.85 0 0 0 .48 2 4.28 4.28 0 0 0 1.84 1.44 24.15 24.15 0 0 0 3.9 1.32q2.47.68 6.47 1.68 1.2.24 3.33.87a16 16 0 0 1 4.23 2 12.78 12.78 0 0 1 3.63 3.69 10.5 10.5 0 0 1 1.53 5.91 13.09 13.09 0 0 1 -1.1 5.53 11.86 11.86 0 0 1 -3.39 4.35 16.3 16.3 0 0 1 -5.58 2.85 26.38 26.38 0 0 1 -7.71 1 27.07 27.07 0 0 1 -6.87-.87 17.28 17.28 0 0 1 -5.88-2.73 13.49 13.49 0 0 1 -4.05-4.74 14.15 14.15 0 0 1 -1.44-6.86h9.12a7.86 7.86 0 0 0 .78 3.66z"/><path d="m290 66.3v-7.92h35.1v7.92h-12.86v34.92h-9.42v-34.92z"/><path d="m444.88 1 10 29.46h.12l9.5-29.46h13.26v42.86h-8.82v-30.36h-.12l-10.5 30.36h-7.26l-10.5-30.06h-.12v30.06h-8.82v-42.86z"/><path d="m554.08 1 17.92 28.76h.12v-28.76h8.82v42.86h-9.42l-17.86-28.68h-.12v28.68h-8.82v-42.86z"/><path d="m620.55 43.53a15.74 15.74 0 0 1 -6.17 1.29 21.9 21.9 0 0 1 -8.85-1.71 19 19 0 0 1 -6.63-4.71 20.71 20.71 0 0 1 -4.15-7 25.87 25.87 0 0 1 -1.43-8.73 26.77 26.77 0 0 1 1.43-8.91 21.26 21.26 0 0 1 4.15-7.17 18.93 18.93 0 0 1 6.63-4.8 21.57 21.57 0 0 1 8.85-1.79 20.91 20.91 0 0 1 6.39 1 18.05 18.05 0 0 1 5.57 2.91 15.7 15.7 0 0 1 6.1 11.22h-9a9.06 9.06 0 0 0 -3.24-5.4 9.44 9.44 0 0 0 -5.82-1.8 10.94 10.94 0 0 0 -5.38 1.22 10.11 10.11 0 0 0 -3.6 3.3 14.25 14.25 0 0 0 -2 4.71 23.44 23.44 0 0 0 -.63 5.46 21.81 21.81 0 0 0 .63 5.25 14 14 0 0 0 2 4.59 10.22 10.22 0 0 0 3.6 3.27 10.94 10.94 0 0 0 5.4 1.23c3.12 0 5.52-.79 7.23-2.37a10.39 10.39 0 0 0 3-6.87h-9.49v-7h18v23.14h-6l-1-4.86a14.05 14.05 0 0 1 -5.59 4.53z"/><path d="m646.29 13.71a21.26 21.26 0 0 1 4.15-7.17 18.93 18.93 0 0 1 6.63-4.8 23.43 23.43 0 0 1 17.72 0 19.13 19.13 0 0 1 6.61 4.8 21.4 21.4 0 0 1 4.14 7.17 26.77 26.77 0 0 1 1.46 8.91 25.87 25.87 0 0 1 -1.44 8.73 20.85 20.85 0 0 1 -4.14 7 19.16 19.16 0 0 1 -6.61 4.71 23.81 23.81 0 0 1 -17.72 0 19 19 0 0 1 -6.63-4.71 20.71 20.71 0 0 1 -4.15-7 25.87 25.87 0 0 1 -1.43-8.73 26.77 26.77 0 0 1 1.41-8.91zm8.62 14.16a14 14 0 0 0 2 4.59 10.22 10.22 0 0 0 3.6 3.27 12.47 12.47 0 0 0 10.8 0 10.48 10.48 0 0 0 3.6-3.27 14.39 14.39 0 0 0 2-4.59 21.81 21.81 0 0 0 .64-5.25 23.45 23.45 0 0 0 -.64-5.46 14.66 14.66 0 0 0 -2-4.71 10.37 10.37 0 0 0 -3.6-3.3 12.47 12.47 0 0 0 -10.8 0 10.11 10.11 0 0 0 -3.6 3.3 14.25 14.25 0 0 0 -2 4.71 23.44 23.44 0 0 0 -.63 5.46 21.81 21.81 0 0 0 .63 5.25z"/><path d="m708.81 1v34.94h20.89v7.92h-30.31v-42.86z"/><path d="m750.39 1v42.86h-9.39v-42.86z"/><path d="m786 1 16 42.84h-9.78l-3.22-9.52h-16l-3.36 9.54h-9.48l16.21-42.86zm.54 26.28-5.4-15.72h-.12l-5.55 15.74z"/></g><path d="m492.7 32.41v9.85h9.99v-39.6h9.89v39.62h9.89v-39.65h9.89v9.94h-39.66l.03 9.89h39.67l-.03 9.91z" fill="none" stroke="#fff" stroke-miterlimit="10" stroke-width="3"/><circle cx="34.19" cy="146.26" fill="#e62330" r="31.15"/><path d="m36 126.44a10.21 10.21 0 0 0 1.19 9.34c2.41 3.82 3.33 7.65.57 11.74a3.2 3.2 0 0 0 -.56 2.37 11.06 11.06 0 0 0 1.92 3.47c.18.25 1.7 0 1.86-.38.54-1.2 1.44-3 .95-3.77-2.06-3.22-1.4-5.79.71-8.65.74-1 .42-2.81.58-4.16 3.13 2 3.46 3.55 2.32 7.13a6.79 6.79 0 0 0 .5 4.95c3 5 2 9.65-1.44 13.69a12.42 12.42 0 0 1 -13.39 4.07 12.22 12.22 0 0 1 -9.51-10.53c-.29-1.93.73-4.32 1.78-6.14 1.52-2.63 3.82-4.7 2.09-8.33-.42-.88 1.49-2.88 2.62-4.88.37 2.19.18 3.77.88 4.65 1.87 2.36 1.21 4.2-.41 6.23-.67.84-1.5 2-1.39 2.93a6 6 0 0 0 1.9 3.14 2.24 2.24 0 0 0 2.2-.25c.74-1.07 1.89-2.95 1.47-3.59-2.87-4.39-1-8.06 1.08-11.93a4.79 4.79 0 0 0 -.08-3.45c-1.73-4.68-1.79-4.66 1.6-7.65z" fill="#fff"/><circle cx="106.13" cy="146.26" fill="#fae400" r="31.15"/><path d="m106.5 126.4a15.11 15.11 0 0 1 15.1 14.85 15.2 15.2 0 1 1 -30.4 0 15.11 15.11 0 0 1 15.3-14.85z" fill="#fff"/><path d="m127.74 144.13c.42 13-9.48 22.89-21.89 22.67a21.39 21.39 0 0 1 -20.72-22.56c4.15 9.58 10.88 15.16 21.21 15.18s17.14-5.49 21.4-15.29z" fill="#fff"/><circle cx="178.07" cy="146.26" fill="#1b76ba" r="31.15"/><path d="m174.3 146.69a17.87 17.87 0 0 1 5-.89 9.86 9.86 0 0 0 8.76-6.88 9.33 9.33 0 0 0 -4.17-10.24 14 14 0 0 0 -10.51-2c-8.77 1.69-14.79 9.12-15.45 18.92-.59 8.65 5.08 17.28 13.4 19.73-.39-.34-.81-.65-1.16-1a10.88 10.88 0 0 1 4.13-17.64zm4.35-14.38a3.69 3.69 0 0 1 3.79 3.81 3.79 3.79 0 0 1 -3.68 3.74 3.9 3.9 0 0 1 -3.85-3.85 3.83 3.83 0 0 1 3.74-3.7z" fill="#fff"/><path d="m199.21 143.27c-1.13-7.64-5.77-12.84-12.94-15.72 4.53 5.33 5.23 10.35 1.92 15.06-2.56 3.63-6.32 4.71-10.53 4.93a9.12 9.12 0 0 0 -4.5 16.73 15.33 15.33 0 0 0 17.28-.34c7.19-5.03 10.04-12.17 8.77-20.66zm-20.61 17.73a4 4 0 0 1 -3.69-3.81 3.76 3.76 0 0 1 3.87-3.76 3.66 3.66 0 0 1 3.64 3.72 3.8 3.8 0 0 1 -3.82 3.85z" fill="#fff"/><path d="m178.76 139.86a3.79 3.79 0 0 0 3.68-3.74 3.69 3.69 0 0 0 -3.79-3.81 3.83 3.83 0 0 0 -3.74 3.7 3.9 3.9 0 0 0 3.85 3.85z" fill="#1b76ba"/><path d="m178.78 153.39a3.76 3.76 0 0 0 -3.87 3.76 4 4 0 0 0 3.69 3.85 3.8 3.8 0 0 0 3.82-3.85 3.66 3.66 0 0 0 -3.64-3.76z" fill="#1b76ba"/></svg>