<svg xmlns="http://www.w3.org/2000/svg" viewBox="0 0 802.05 177.42"><defs><style>.cls-1{fill:#fff;}.cls-2{fill:none;stroke:#fff;stroke-miterlimit:10;stroke-width:3px;}.cls-3{fill:#e62330;}.cls-4{fill:#fae400;}.cls-5{fill:#1b76ba;}</style></defs><title>logo</title><g id="Layer_2" data-name="Layer 2"><g id="Layer_1-2" data-name="Layer 1"><path class="cls-1" d="M9.36,1,27.24,29.76h.12V1h8.82V43.86H26.76L8.94,15.18H8.82V43.86H0V1Z"/><path class="cls-1" d="M82.5,1V8.94H59.88v9.18H80.64v7.32H59.88v10.5H83v7.92H50.46V1Z"/><path class="cls-1" d="M126.78,43.86,119.52,14.7h-.12l-7.14,29.16h-9.54L91.38,1h9.42l6.78,29.16h.12L115.14,1H124l7.32,29.52h.12l7-29.52h9.24L136.14,43.86Z"/><path class="cls-1" d="M176,1H186.6l10,16.92L206.58,1h10.5l-15.9,26.4V43.86h-9.42V27.18Z"/><path class="cls-1" d="M226.26,13.71a21.4,21.4,0,0,1,4.14-7.17A18.93,18.93,0,0,1,237,1.74a23.45,23.45,0,0,1,17.73,0,19,19,0,0,1,6.6,4.8,21.4,21.4,0,0,1,4.14,7.17,26.77,26.77,0,0,1,1.44,8.91,25.87,25.87,0,0,1-1.44,8.73,20.85,20.85,0,0,1-4.14,7,19,19,0,0,1-6.6,4.71,23.83,23.83,0,0,1-17.73,0,19,19,0,0,1-6.63-4.71,20.85,20.85,0,0,1-4.14-7,25.87,25.87,0,0,1-1.44-8.73A26.77,26.77,0,0,1,226.26,13.71Zm8.61,14.16a14.19,14.19,0,0,0,2,4.59,10.3,10.3,0,0,0,3.6,3.27,12.47,12.47,0,0,0,10.8,0,10.3,10.3,0,0,0,3.6-3.27,14.19,14.19,0,0,0,2-4.59,21.81,21.81,0,0,0,.63-5.25,23.44,23.44,0,0,0-.63-5.46,14.46,14.46,0,0,0-2-4.71,10.2,10.2,0,0,0-3.6-3.3,12.47,12.47,0,0,0-10.8,0,10.2,10.2,0,0,0-3.6,3.3,14.46,14.46,0,0,0-2,4.71,23.44,23.44,0,0,0-.63,5.46A21.81,21.81,0,0,0,234.87,27.87Z"/><path class="cls-1" d="M302.46,1a13.79,13.79,0,0,1,5.19.93,12,12,0,0,1,4,2.55,11.07,11.07,0,0,1,2.52,3.75,12,12,0,0,1,.87,4.59,12.88,12.88,0,0,1-1.59,6.54,10,10,0,0,1-5.19,4.2v.12a7.27,7.27,0,0,1,2.88,1.47A8.15,8.15,0,0,1,313,27.51a10.89,10.89,0,0,1,1.05,3,25.75,25.75,0,0,1,.45,3.24q.06,1,.12,2.4t.21,2.82a18.92,18.92,0,0,0,.48,2.73,6.3,6.3,0,0,0,1,2.19h-9.42a16.61,16.61,0,0,1-1-4.86q-.18-2.82-.54-5.4a8.51,8.51,0,0,0-2-4.92q-1.56-1.56-5.1-1.56h-9.42V43.86h-9.42V1ZM299.1,20.4A7.13,7.13,0,0,0,304,19q1.62-1.44,1.62-4.68T304,9.75a7.23,7.23,0,0,0-4.86-1.41H288.78V20.4Z"/><path class="cls-1" d="M338.1,1V18.78L354.84,1H366.6L349.86,17.94l18.36,25.92H356.4L343.5,24.6l-5.4,5.46v13.8h-9.42V1Z"/><path class="cls-1" d="M409.46,0,392.72,44.82h-6.78L402.62,0Z"/><path class="cls-1" d="M21,58.38a17.84,17.84,0,0,1,6.84,1.17,12.8,12.8,0,0,1,4.59,3.09A11.87,11.87,0,0,1,35,67a16.37,16.37,0,0,1,0,10.17,11.83,11.83,0,0,1-2.58,4.41,12.8,12.8,0,0,1-4.59,3.09A17.84,17.84,0,0,1,21,85.86H11.1v15.36H1.68V58.38ZM18.42,78.54a19.73,19.73,0,0,0,3.12-.24,7.26,7.26,0,0,0,2.64-.93,5.07,5.07,0,0,0,1.83-2,8.24,8.24,0,0,0,0-6.6,5.07,5.07,0,0,0-1.83-1.95,7.26,7.26,0,0,0-2.64-.93,19.73,19.73,0,0,0-3.12-.24H11.1V78.54Z"/><path class="cls-1" d="M47.28,71.07a21.4,21.4,0,0,1,4.14-7.17,18.93,18.93,0,0,1,6.63-4.8,21.64,21.64,0,0,1,8.85-1.74,21.58,21.58,0,0,1,8.88,1.74,19,19,0,0,1,6.6,4.8,21.4,21.4,0,0,1,4.14,7.17A26.77,26.77,0,0,1,88,80a25.87,25.87,0,0,1-1.44,8.73,20.85,20.85,0,0,1-4.14,7.05,19,19,0,0,1-6.6,4.71,21.91,21.91,0,0,1-8.88,1.71,22,22,0,0,1-8.85-1.71,19,19,0,0,1-6.63-4.71,20.85,20.85,0,0,1-4.14-7.05A25.87,25.87,0,0,1,45.84,80,26.77,26.77,0,0,1,47.28,71.07Zm8.61,14.16a14.19,14.19,0,0,0,2,4.59,10.3,10.3,0,0,0,3.6,3.27,11,11,0,0,0,5.4,1.23,11,11,0,0,0,5.4-1.23,10.3,10.3,0,0,0,3.6-3.27,14.19,14.19,0,0,0,2-4.59A21.81,21.81,0,0,0,78.54,80a23.44,23.44,0,0,0-.63-5.46,14.46,14.46,0,0,0-2-4.71,10.2,10.2,0,0,0-3.6-3.3,11,11,0,0,0-5.4-1.23,11,11,0,0,0-5.4,1.23,10.2,10.2,0,0,0-3.6,3.3,14.46,14.46,0,0,0-2,4.71A23.44,23.44,0,0,0,55.26,80,21.81,21.81,0,0,0,55.89,85.23Z"/><path class="cls-1" d="M118.86,58.38a22.06,22.06,0,0,1,7.71,1.32,16.74,16.74,0,0,1,6.18,4,18.28,18.28,0,0,1,4.08,6.6,26.7,26.7,0,0,1,1.47,9.3,29.68,29.68,0,0,1-1.2,8.64A19,19,0,0,1,133.47,95a17,17,0,0,1-6.06,4.53,20.51,20.51,0,0,1-8.55,1.65H100.38V58.38ZM118.2,93.3a12.1,12.1,0,0,0,4-.66,8.72,8.72,0,0,0,3.42-2.19,11,11,0,0,0,2.4-4,17.55,17.55,0,0,0,.9-6,25,25,0,0,0-.63-5.85,11.67,11.67,0,0,0-2.07-4.47,9.18,9.18,0,0,0-3.81-2.85,15.21,15.21,0,0,0-5.85-1H109.8v27Z"/><path class="cls-1" d="M178.32,69.81a9.47,9.47,0,0,0-2.1-2.37,9.68,9.68,0,0,0-2.85-1.59,9.79,9.79,0,0,0-3.33-.57,11,11,0,0,0-5.4,1.23,10.2,10.2,0,0,0-3.6,3.3,14.46,14.46,0,0,0-2,4.71A23.44,23.44,0,0,0,158.4,80a21.81,21.81,0,0,0,.63,5.25,14.19,14.19,0,0,0,2,4.59,10.3,10.3,0,0,0,3.6,3.27,11,11,0,0,0,5.4,1.23,8.72,8.72,0,0,0,6.75-2.64,12.21,12.21,0,0,0,3-7h9.12A21.78,21.78,0,0,1,187,92a17.39,17.39,0,0,1-4,5.52A16.83,16.83,0,0,1,177.3,101a21.1,21.1,0,0,1-7.26,1.2,22,22,0,0,1-8.85-1.71,19,19,0,0,1-6.63-4.71,20.85,20.85,0,0,1-4.14-7.05A25.87,25.87,0,0,1,149,80a26.77,26.77,0,0,1,1.44-8.91,21.4,21.4,0,0,1,4.14-7.17,18.93,18.93,0,0,1,6.63-4.8,23,23,0,0,1,15.54-.72,18.11,18.11,0,0,1,5.64,3,16.05,16.05,0,0,1,4.11,4.83,17.27,17.27,0,0,1,2,6.6H179.4A7.69,7.69,0,0,0,178.32,69.81Z"/><path class="cls-1" d="M222.66,58.38l16,42.84H228.9l-3.24-9.54h-16l-3.36,9.54H196.8L213,58.38Zm.54,26.28-5.4-15.72h-.12L212.1,84.66Z"/><path class="cls-1" d="M255.6,90.66a6.82,6.82,0,0,0,2.07,2.43,9,9,0,0,0,3,1.38,14.32,14.32,0,0,0,3.6.45,18.77,18.77,0,0,0,2.7-.21,9.39,9.39,0,0,0,2.7-.81,5.89,5.89,0,0,0,2.1-1.65,4.14,4.14,0,0,0,.84-2.67,3.76,3.76,0,0,0-1.11-2.82,8.8,8.8,0,0,0-2.91-1.8,29,29,0,0,0-4.08-1.26q-2.28-.54-4.62-1.2A41,41,0,0,1,255.24,81a16.08,16.08,0,0,1-4.08-2.25,10.6,10.6,0,0,1-2.91-3.45,10.48,10.48,0,0,1-1.11-5,11.22,11.22,0,0,1,1.41-5.73,12.78,12.78,0,0,1,3.69-4.05,16.08,16.08,0,0,1,5.16-2.4,22,22,0,0,1,5.76-.78,27.25,27.25,0,0,1,6.45.75,16.09,16.09,0,0,1,5.49,2.43,12.29,12.29,0,0,1,3.81,4.29,13.16,13.16,0,0,1,1.41,6.33H271.2a7.57,7.57,0,0,0-.81-3.18,5.3,5.3,0,0,0-1.83-2A7.74,7.74,0,0,0,266,65a16.07,16.07,0,0,0-3.21-.3,11,11,0,0,0-2.28.24,6.1,6.1,0,0,0-2.07.84,5.21,5.21,0,0,0-1.53,1.5,4,4,0,0,0-.6,2.28,3.85,3.85,0,0,0,.48,2A4.28,4.28,0,0,0,258.63,73a24.15,24.15,0,0,0,3.9,1.32Q265,75,269,76q1.2.24,3.33.87a16,16,0,0,1,4.23,2,12.78,12.78,0,0,1,3.63,3.69,10.5,10.5,0,0,1,1.53,5.91A13.09,13.09,0,0,1,280.62,94a11.86,11.86,0,0,1-3.39,4.35,16.3,16.3,0,0,1-5.58,2.85,26.38,26.38,0,0,1-7.71,1,27.07,27.07,0,0,1-6.87-.87,17.28,17.28,0,0,1-5.88-2.73,13.49,13.49,0,0,1-4.05-4.74A14.15,14.15,0,0,1,245.7,87h9.12A7.86,7.86,0,0,0,255.6,90.66Z"/><path class="cls-1" d="M290,66.3V58.38h35.1V66.3H312.24v34.92h-9.42V66.3Z"/><path class="cls-1" d="M444.88,1l10,29.46H455L464.5,1h13.26V43.86h-8.82V13.5h-.12l-10.5,30.36h-7.26L440.56,13.8h-.12V43.86h-8.82V1Z"/><path class="cls-1" d="M554.08,1,572,29.76h.12V1h8.82V43.86h-9.42L553.66,15.18h-.12V43.86h-8.82V1Z"/><path class="cls-1" d="M620.55,43.53a15.74,15.74,0,0,1-6.17,1.29,21.9,21.9,0,0,1-8.85-1.71,19,19,0,0,1-6.63-4.71,20.71,20.71,0,0,1-4.15-7,25.87,25.87,0,0,1-1.43-8.73,26.77,26.77,0,0,1,1.43-8.91,21.26,21.26,0,0,1,4.15-7.17,18.93,18.93,0,0,1,6.63-4.8A21.57,21.57,0,0,1,614.38,0a20.91,20.91,0,0,1,6.39,1,18.05,18.05,0,0,1,5.57,2.91,15.7,15.7,0,0,1,6.1,11.22h-9a9.06,9.06,0,0,0-3.24-5.4,9.44,9.44,0,0,0-5.82-1.8A10.94,10.94,0,0,0,609,9.15a10.11,10.11,0,0,0-3.6,3.3,14.25,14.25,0,0,0-2,4.71,23.44,23.44,0,0,0-.63,5.46,21.81,21.81,0,0,0,.63,5.25,14,14,0,0,0,2,4.59,10.22,10.22,0,0,0,3.6,3.27,10.94,10.94,0,0,0,5.4,1.23c3.12,0,5.52-.79,7.23-2.37a10.39,10.39,0,0,0,3-6.87h-9.49v-7h18V43.86h-6l-1-4.86A14.05,14.05,0,0,1,620.55,43.53Z"/><path class="cls-1" d="M646.29,13.71a21.26,21.26,0,0,1,4.15-7.17,18.93,18.93,0,0,1,6.63-4.8,23.43,23.43,0,0,1,17.72,0,19.13,19.13,0,0,1,6.61,4.8,21.4,21.4,0,0,1,4.14,7.17A26.77,26.77,0,0,1,687,22.62a25.87,25.87,0,0,1-1.44,8.73,20.85,20.85,0,0,1-4.14,7,19.16,19.16,0,0,1-6.61,4.71,23.81,23.81,0,0,1-17.72,0,19,19,0,0,1-6.63-4.71,20.71,20.71,0,0,1-4.15-7,25.87,25.87,0,0,1-1.43-8.73A26.77,26.77,0,0,1,646.29,13.71Zm8.62,14.16a14,14,0,0,0,2,4.59,10.22,10.22,0,0,0,3.6,3.27,12.47,12.47,0,0,0,10.8,0,10.48,10.48,0,0,0,3.6-3.27,14.39,14.39,0,0,0,2-4.59,21.81,21.81,0,0,0,.64-5.25,23.45,23.45,0,0,0-.64-5.46,14.66,14.66,0,0,0-2-4.71,10.37,10.37,0,0,0-3.6-3.3,12.47,12.47,0,0,0-10.8,0,10.11,10.11,0,0,0-3.6,3.3,14.25,14.25,0,0,0-2,4.71,23.44,23.44,0,0,0-.63,5.46A21.81,21.81,0,0,0,654.91,27.87Z"/><path class="cls-1" d="M708.81,1V35.94H729.7v7.92H699.39V1Z"/><path class="cls-1" d="M750.39,1V43.86H741V1Z"/><path class="cls-1" d="M786,1l16,42.84h-9.78L789,34.32H773l-3.36,9.54h-9.48L776.37,1Zm.54,26.28-5.4-15.72h-.12L775.47,27.3Z"/><polygon class="cls-2" points="492.7 32.41 492.7 42.26 502.69 42.26 502.69 2.66 512.58 2.66 512.58 42.28 522.47 42.28 522.47 2.63 532.36 2.63 532.36 12.57 492.7 12.57 492.73 22.46 532.4 22.46 532.37 32.37 492.7 32.41"/><circle class="cls-3" cx="34.19" cy="146.26" r="31.15"/><path class="cls-1" d="M36,126.44a10.21,10.21,0,0,0,1.19,9.34c2.41,3.82,3.33,7.65.57,11.74a3.2,3.2,0,0,0-.56,2.37,11.06,11.06,0,0,0,1.92,3.47c.18.25,1.7,0,1.86-.38.54-1.2,1.44-3,.95-3.77-2.06-3.22-1.4-5.79.71-8.65.74-1,.42-2.81.58-4.16,3.13,2,3.46,3.55,2.32,7.13a6.79,6.79,0,0,0,.5,4.95c3,5,2,9.65-1.44,13.69a12.42,12.42,0,0,1-13.39,4.07,12.22,12.22,0,0,1-9.51-10.53c-.29-1.93.73-4.32,1.78-6.14,1.52-2.63,3.82-4.7,2.09-8.33-.42-.88,1.49-2.88,2.62-4.88.37,2.19.18,3.77.88,4.65,1.87,2.36,1.21,4.2-.41,6.23-.67.84-1.5,2-1.39,2.93a6,6,0,0,0,1.9,3.14,2.24,2.24,0,0,0,2.2-.25c.74-1.07,1.89-2.95,1.47-3.59-2.87-4.39-1-8.06,1.08-11.93a4.79,4.79,0,0,0-.08-3.45c-1.73-4.68-1.79-4.66,1.6-7.65Z"/><circle class="cls-4" cx="106.13" cy="146.26" r="31.15"/><path class="cls-1" d="M106.5,126.4a15.11,15.11,0,0,1,15.1,14.85,15.2,15.2,0,1,1-30.4,0A15.11,15.11,0,0,1,106.5,126.4Z"/><path class="cls-1" d="M127.74,144.13c.42,13-9.48,22.89-21.89,22.67a21.39,21.39,0,0,1-20.72-22.56c4.15,9.58,10.88,15.16,21.21,15.18S123.48,153.93,127.74,144.13Z"/><circle class="cls-5" cx="178.07" cy="146.26" r="31.15"/><path class="cls-1" d="M174.3,146.69a17.87,17.87,0,0,1,5-.89,9.86,9.86,0,0,0,8.76-6.88,9.33,9.33,0,0,0-4.17-10.24,14,14,0,0,0-10.51-2c-8.77,1.69-14.79,9.12-15.45,18.92-.59,8.65,5.08,17.28,13.4,19.73-.39-.34-.81-.65-1.16-1A10.88,10.88,0,0,1,174.3,146.69Zm4.35-14.38a3.69,3.69,0,0,1,3.79,3.81,3.79,3.79,0,0,1-3.68,3.74,3.9,3.9,0,0,1-3.85-3.85A3.83,3.83,0,0,1,178.65,132.31Z"/><path class="cls-1" d="M199.21,143.27c-1.13-7.64-5.77-12.84-12.94-15.72,4.53,5.33,5.23,10.35,1.92,15.06-2.56,3.63-6.32,4.71-10.53,4.93a9.12,9.12,0,0,0-4.5,16.73,15.33,15.33,0,0,0,17.28-.34C197.63,158.9,200.48,151.76,199.21,143.27ZM178.6,161a4,4,0,0,1-3.69-3.81,3.76,3.76,0,0,1,3.87-3.76,3.66,3.66,0,0,1,3.64,3.72A3.8,3.8,0,0,1,178.6,161Z"/><path class="cls-5" d="M178.76,139.86a3.79,3.79,0,0,0,3.68-3.74,3.69,3.69,0,0,0-3.79-3.81,3.83,3.83,0,0,0-3.74,3.7A3.9,3.9,0,0,0,178.76,139.86Z"/><path class="cls-5" d="M178.78,153.39a3.76,3.76,0,0,0-3.87,3.76A4,4,0,0,0,178.6,161a3.8,3.8,0,0,0,3.82-3.85A3.66,3.66,0,0,0,178.78,153.39Z"/></g></g></svg>